<svg width="141" height="24" viewBox="0 0 141 24" fill="none" xmlns="http://www.w3.org/2000/svg">
<path d="M4.62512 6.03882C3.18635 6.03882 2 7.19997 2 8.66403V14.2174V19.7707H4.62512V14.2174V8.66403H7.75507H10.885V6.03882H7.75507H4.62512V6.03882Z" fill="white"/>
<path d="M26.5346 12.8795V8.63877C26.5346 7.19994 25.3735 6.01355 23.9095 6.01355H19.6689H15.4283C13.9896 6.01355 12.8032 7.1747 12.8032 8.63877V12.8795V17.1202C12.8032 18.5591 13.9643 19.7455 15.4283 19.7455H19.6689H23.9095C25.3483 19.7455 26.5346 18.5843 26.5346 17.1202V12.8795ZM23.9095 12.8795V17.1202H19.6689H15.4283V12.8795V8.63877H19.6689H23.9095V12.8795Z" fill="white"/>
<path d="M31.7853 6.03882C30.3465 6.03882 29.1602 7.19997 29.1602 8.66403V12.9048V17.1455C29.1602 18.5843 30.3213 19.7707 31.7853 19.7707L41.0237 19.6445V17.1455H31.7853V12.9048V8.66403H41.0237V6.16503L31.7853 6.03882Z" fill="white"/>
<path d="M56.0673 6.03882H52.5082L47.3085 11.5669H46.2736V6.03882H43.6484V12.8795V19.7455H46.2736V14.1921H47.5861H47.788L53.1897 19.7455H56.7993L49.8579 12.5766L56.0673 6.03882Z" fill="white"/>
<path d="M59.9801 17.1202V14.1921L71.0864 14.0659V11.5669V8.63877C71.0864 7.19994 69.9253 6.01355 68.4613 6.01355H64.2207H59.9801C58.5413 6.01355 57.355 7.1747 57.355 8.63877V12.8795V17.1202C57.355 18.5591 58.5161 19.7455 59.9801 19.7455L71.0864 19.6192V17.1202H59.9801ZM59.9801 8.63877H64.2207H68.4613V11.5669H65.5332H59.9801V8.63877V8.63877Z" fill="white"/>
<path d="M77.6744 2.02527H76.6647L75.0493 4.01943V6.01359H73.0552V8.6388L75.0493 8.61356V17.1203C75.0493 18.5591 76.2104 19.7455 77.6744 19.7455L81.915 19.6193V17.1203H77.6744V8.58831L82.2936 8.51259V6.01359H77.6744V2.02527Z" fill="white"/>
<path d="M96.1257 14.1921C96.1257 12.7533 94.9646 11.5669 93.5006 11.5669H90.194H86.8873V8.63877H96.1257V6.13976L86.8873 6.01355C85.4486 6.01355 84.2622 7.1747 84.2622 8.63877V11.5669C84.2622 13.0057 85.4233 14.1921 86.8873 14.1921H90.194H93.5006V17.1202H84.2622V19.6192L93.5006 19.7455C94.9394 19.7455 96.1257 18.5843 96.1257 17.1202V14.1921Z" fill="white"/>
<path d="M109.832 6.03882H105.591H101.351C99.9119 6.03882 98.7256 7.19997 98.7256 8.66403V12.9048V17.1455C98.7256 18.5843 99.8867 19.7707 101.351 19.7707L112.457 19.6445V17.1455H101.351V14.2174L112.457 14.0912V11.5922V8.66403C112.457 7.19997 111.296 6.03882 109.832 6.03882ZM109.832 11.5669H101.351V8.63879H105.591H109.832V11.5669V11.5669Z" fill="white"/>
<path d="M126.188 6.03882L115.082 6.16503V8.66403H126.188V11.5922L115.082 11.7184V14.2174V17.1455C115.082 18.5843 116.243 19.7707 117.707 19.7707H121.948H126.188C127.627 19.7707 128.813 18.6096 128.813 17.1455V12.9048V8.66403C128.788 7.19997 127.627 6.03882 126.188 6.03882ZM126.188 17.1203H121.948H117.707V14.1921H126.188V17.1203V17.1203Z" fill="white"/>
<path d="M135.377 8.58828L139.996 8.51256V6.01355H135.377V2H134.367L132.751 3.99415V5.98831H130.757V8.61353L132.751 8.58828V17.095C132.751 18.5338 133.913 19.7202 135.377 19.7202L139.617 19.594V17.095H135.377V8.58828Z" fill="white"/>
</svg>
